<svg width="20" height="20" viewBox="0 0 20 20" fill="none" xmlns="http://www.w3.org/2000/svg">
<g id=" Cart, shop, sell, buy, add, plus">
<g id="Shape">
<path d="M2.5013 3.33329C2.04106 3.33329 1.66797 3.70639 1.66797 4.16663C1.66797 4.62686 2.04106 4.99996 2.5013 4.99996H3.33464C3.75191 4.99996 4.09755 5.30664 4.15845 5.7069L4.39086 9.42647C4.52808 11.6225 6.34913 13.3333 8.54942 13.3333H15.8346C16.2949 13.3333 16.668 12.9602 16.668 12.5C16.668 12.0397 16.2949 11.6666 15.8346 11.6666H8.54942C7.22924 11.6666 6.13661 10.6401 6.05428 9.32253L5.88833 6.66663H7.5013C7.96154 6.66663 8.33463 6.29353 8.33463 5.83329C8.33463 5.37305 7.96154 4.99996 7.5013 4.99996H5.69238C5.34918 4.02897 4.42315 3.33329 3.33464 3.33329H2.5013Z" fill="white"/>
<path d="M9.16797 16.6666C9.16797 17.5871 8.42178 18.3333 7.5013 18.3333C6.58083 18.3333 5.83463 17.5871 5.83463 16.6666C5.83463 15.7461 6.58083 15 7.5013 15C8.42178 15 9.16797 15.7461 9.16797 16.6666Z" fill="white"/>
<path d="M12.5013 18.3333C13.4218 18.3333 14.168 17.5871 14.168 16.6666C14.168 15.7461 13.4218 15 12.5013 15C11.5808 15 10.8346 15.7461 10.8346 16.6666C10.8346 17.5871 11.5808 18.3333 12.5013 18.3333Z" fill="white"/>
<path fill-rule="evenodd" clip-rule="evenodd" d="M18.3346 5.83329C18.3346 8.13448 16.4692 9.99996 14.168 9.99996C11.8668 9.99996 10.0013 8.13448 10.0013 5.83329C10.0013 3.53211 11.8668 1.66663 14.168 1.66663C16.4692 1.66663 18.3346 3.53211 18.3346 5.83329ZM16.4596 5.83329C16.4596 6.17847 16.1798 6.45829 15.8346 6.45829H14.793V7.49996C14.793 7.84514 14.5131 8.12496 14.168 8.12496C13.8228 8.12496 13.543 7.84514 13.543 7.49996V6.45829H12.5013C12.1561 6.45829 11.8763 6.17847 11.8763 5.83329C11.8763 5.48811 12.1561 5.20829 12.5013 5.20829H13.543V4.16663C13.543 3.82145 13.8228 3.54163 14.168 3.54163C14.5131 3.54163 14.793 3.82145 14.793 4.16663V5.20829H15.8346C16.1798 5.20829 16.4596 5.48811 16.4596 5.83329Z" fill="white"/>
</g>
</g>
</svg>
