<svg width="16" height="16" viewBox="0 0 16 16" fill="none" xmlns="http://www.w3.org/2000/svg">
<g id="uim:analytics">
<path id="Vector" d="M3.33464 14.6671C3.15782 14.6671 2.98826 14.5968 2.86323 14.4718C2.73821 14.3468 2.66797 14.1772 2.66797 14.0004V8.66707C2.66797 8.49026 2.73821 8.32069 2.86323 8.19567C2.98826 8.07065 3.15782 8.00041 3.33464 8.00041C3.51145 8.00041 3.68102 8.07065 3.80604 8.19567C3.93106 8.32069 4.0013 8.49026 4.0013 8.66707V14.0004C4.0013 14.1772 3.93106 14.3468 3.80604 14.4718C3.68102 14.5968 3.51145 14.6671 3.33464 14.6671ZM6.66797 14.6671C6.49116 14.6671 6.32159 14.5968 6.19656 14.4718C6.07154 14.3468 6.0013 14.1772 6.0013 14.0004V2.00041C6.0013 1.8236 6.07154 1.65403 6.19656 1.529C6.32159 1.40398 6.49116 1.33374 6.66797 1.33374C6.84478 1.33374 7.01435 1.40398 7.13937 1.529C7.2644 1.65403 7.33464 1.8236 7.33464 2.00041V14.0004C7.33464 14.1772 7.2644 14.3468 7.13937 14.4718C7.01435 14.5968 6.84478 14.6671 6.66797 14.6671ZM10.0013 14.6671C9.82449 14.6671 9.65492 14.5968 9.5299 14.4718C9.40487 14.3468 9.33463 14.1772 9.33463 14.0004V6.00041C9.33463 5.8236 9.40487 5.65403 9.5299 5.529C9.65492 5.40398 9.82449 5.33374 10.0013 5.33374C10.1781 5.33374 10.3477 5.40398 10.4727 5.529C10.5977 5.65403 10.668 5.8236 10.668 6.00041V14.0004C10.668 14.1772 10.5977 14.3468 10.4727 14.4718C10.3477 14.5968 10.1781 14.6671 10.0013 14.6671ZM13.3346 14.6671C13.1578 14.6671 12.9883 14.5968 12.8632 14.4718C12.7382 14.3468 12.668 14.1772 12.668 14.0004V11.3337C12.668 11.1569 12.7382 10.9874 12.8632 10.8623C12.9883 10.7373 13.1578 10.6671 13.3346 10.6671C13.5114 10.6671 13.681 10.7373 13.806 10.8623C13.9311 10.9874 14.0013 11.1569 14.0013 11.3337V14.0004C14.0013 14.1772 13.9311 14.3468 13.806 14.4718C13.681 14.5968 13.5114 14.6671 13.3346 14.6671Z" fill="#331400"/>
</g>
</svg>
