<svg width="20" height="20" viewBox="0 0 20 20" fill="none" xmlns="http://www.w3.org/2000/svg">
<g id="radix-icons:instagram-logo">
<path id="Vector" fill-rule="evenodd" clip-rule="evenodd" d="M17.212 17.2119C17.6467 16.7759 17.988 16.2519 18.2107 15.6773C18.424 15.1253 18.5707 14.4959 18.6134 13.5733C18.656 12.6493 18.6667 12.3533 18.6667 9.99992C18.6667 7.64659 18.656 7.35059 18.6134 6.42659C18.5707 5.50392 18.424 4.87459 18.2107 4.32259C17.993 3.74438 17.6517 3.22064 17.2107 2.78792C16.7779 2.34698 16.2542 2.00572 15.676 1.78792C15.124 1.57459 14.4947 1.42792 13.572 1.38525C12.648 1.34259 12.352 1.33325 9.9987 1.33325C7.64536 1.33325 7.34937 1.34259 6.42536 1.38659C5.5027 1.42659 4.87336 1.57325 4.32136 1.78792C3.74345 2.00622 3.21983 2.34741 2.7867 2.78792C2.34619 3.22105 2.005 3.74467 1.7867 4.32259C1.57336 4.87459 1.4267 5.50392 1.38403 6.42659C1.34136 7.35059 1.33203 7.64659 1.33203 9.99992C1.33203 12.3533 1.34136 12.6493 1.38536 13.5733C1.42536 14.4959 1.57203 15.1253 1.7867 15.6773C2.00536 16.2559 2.3467 16.7786 2.7867 17.2119C3.22003 17.6519 3.74403 17.9933 4.32136 18.2119C4.87336 18.4253 5.5027 18.5719 6.42536 18.6146C7.34937 18.6559 7.64536 18.6666 9.9987 18.6666C12.352 18.6666 12.648 18.6559 13.572 18.6133C14.4947 18.5733 15.124 18.4266 15.676 18.2119C16.2517 17.9891 16.7744 17.6485 17.2107 17.2119H17.212ZM2.66536 8.97992V11.0199C2.6627 12.1146 2.6627 12.3986 2.69203 13.0199C2.7267 13.8013 2.76936 14.3746 2.90003 14.8066C3.02536 15.2226 3.16536 15.6466 3.62403 16.1559C4.0827 16.6666 4.52403 16.8973 5.0867 17.0679C5.6507 17.2373 6.3587 17.2733 6.97336 17.3013C7.66936 17.3333 7.9467 17.3333 9.40803 17.3333H10.9854C12.108 17.3346 12.3907 17.3359 13.02 17.3066C13.8 17.2706 14.3734 17.2279 14.8067 17.0986C15.2214 16.9733 15.6454 16.8319 16.1547 16.3746C16.6654 15.9159 16.896 15.4733 17.0667 14.9106C17.236 14.3479 17.2734 13.6399 17.3014 13.0253C17.332 12.3293 17.332 12.0533 17.332 10.5959V9.40925C17.332 7.94792 17.332 7.67192 17.3014 6.97459C17.2734 6.35992 17.236 5.65192 17.0667 5.08925C16.8974 4.52525 16.6667 4.08392 16.1547 3.62525C15.644 3.16659 15.2214 3.02659 14.8067 2.90125C14.3734 2.77192 13.8 2.72792 13.02 2.69325C12.3422 2.6654 11.6637 2.6565 10.9854 2.66659H9.40803C7.9467 2.66659 7.66936 2.66659 6.97336 2.69725C6.3587 2.72525 5.6507 2.76259 5.0867 2.93192C4.52403 3.10259 4.0827 3.33325 3.62403 3.84392C3.16536 4.35459 3.02403 4.77725 2.90003 5.19325C2.76936 5.62525 2.7267 6.19859 2.69203 6.97992C2.6627 7.60125 2.6627 7.88525 2.66536 8.97992ZM9.9987 6.99992C9.20305 6.99992 8.43999 7.31599 7.87738 7.8786C7.31477 8.44121 6.9987 9.20427 6.9987 9.99992C6.9987 10.7956 7.31477 11.5586 7.87738 12.1212C8.43999 12.6838 9.20305 12.9999 9.9987 12.9999C10.7943 12.9999 11.5574 12.6838 12.12 12.1212C12.6826 11.5586 12.9987 10.7956 12.9987 9.99992C12.9987 9.20427 12.6826 8.44121 12.12 7.8786C11.5574 7.31599 10.7943 6.99992 9.9987 6.99992ZM5.66536 9.99992C5.66536 8.85065 6.12191 7.74845 6.93457 6.93579C7.74723 6.12313 8.84943 5.66659 9.9987 5.66659C11.148 5.66659 12.2502 6.12313 13.0628 6.93579C13.8755 7.74845 14.332 8.85065 14.332 9.99992C14.332 11.1492 13.8755 12.2514 13.0628 13.064C12.2502 13.8767 11.148 14.3333 9.9987 14.3333C8.84943 14.3333 7.74723 13.8767 6.93457 13.064C6.12191 12.2514 5.66536 11.1492 5.66536 9.99992ZM14.6254 6.37325C14.8906 6.37325 15.1449 6.2679 15.3325 6.08036C15.52 5.89282 15.6254 5.63847 15.6254 5.37325C15.6254 5.10804 15.52 4.85368 15.3325 4.66615C15.1449 4.47861 14.8906 4.37325 14.6254 4.37325C14.3601 4.37325 14.1058 4.47861 13.9183 4.66615C13.7307 4.85368 13.6254 5.10804 13.6254 5.37325C13.6254 5.63847 13.7307 5.89282 13.9183 6.08036C14.1058 6.2679 14.3601 6.37325 14.6254 6.37325Z" fill="#331400"/>
</g>
</svg>
