<svg width="16" height="16" viewBox="0 0 16 16" fill="none" xmlns="http://www.w3.org/2000/svg">
<g id=" Cart, shop, sell, buy,">
<g id="Shape">
<path fill-rule="evenodd" clip-rule="evenodd" d="M2.66667 2C2.29848 2 2 2.29848 2 2.66667C2 3.03486 2.29848 3.33333 2.66667 3.33333H3.33333C3.6671 3.33333 3.94358 3.57861 3.99236 3.89875L4.1783 6.87454C4.28807 8.63134 5.74491 10 7.50515 10H10.6667C12.5076 10 14 8.50762 14 6.66667C14 4.82572 12.5076 3.33333 10.6667 3.33333H5.21953C4.94497 2.55654 4.20415 2 3.33333 2H2.66667ZM5.50904 6.79139L5.37628 4.66667H10.6667C11.7712 4.66667 12.6667 5.5621 12.6667 6.66667C12.6667 7.77124 11.7712 8.66667 10.6667 8.66667H7.50515C6.44901 8.66667 5.5749 7.84547 5.50904 6.79139Z" fill="#331400"/>
<path d="M8 12.6667C8 13.403 7.40305 14 6.66667 14C5.93029 14 5.33333 13.403 5.33333 12.6667C5.33333 11.9303 5.93029 11.3333 6.66667 11.3333C7.40305 11.3333 8 11.9303 8 12.6667Z" fill="#331400"/>
<path d="M10.6667 14C11.403 14 12 13.403 12 12.6667C12 11.9303 11.403 11.3333 10.6667 11.3333C9.93029 11.3333 9.33333 11.9303 9.33333 12.6667C9.33333 13.403 9.93029 14 10.6667 14Z" fill="#331400"/>
</g>
</g>
</svg>
