<svg width="16" height="16" viewBox="0 0 16 16" fill="none" xmlns="http://www.w3.org/2000/svg">
<g id=" Heart, love, like, favorite">
<path id="Shape" fill-rule="evenodd" clip-rule="evenodd" d="M1.33398 5.73703C1.33398 3.67313 3.00711 2 5.07102 2C5.8088 2 6.53008 2.21838 7.14395 2.62763L8.00065 3.19877L8.85735 2.62763C9.47122 2.21838 10.1925 2 10.9303 2C12.9942 2 14.6673 3.67313 14.6673 5.73703V6.22921C14.6673 7.53984 14.1467 8.79678 13.2199 9.72354L9.41487 13.5286C8.63382 14.3096 7.36749 14.3096 6.58644 13.5286L2.78138 9.72354C1.85463 8.79679 1.33398 7.53984 1.33398 6.22921V5.73703ZM5.07102 3.33333C3.74349 3.33333 2.66732 4.40951 2.66732 5.73703V6.22921C2.66732 7.18622 3.04749 8.10403 3.72419 8.78073L7.52925 12.5858C7.7896 12.8461 8.21171 12.8461 8.47206 12.5858L12.2771 8.78073C12.9538 8.10402 13.334 7.18622 13.334 6.22921V5.73703C13.334 4.40951 12.2578 3.33333 10.9303 3.33333C10.4557 3.33333 9.9918 3.4738 9.59695 3.73703L8.37045 4.5547C8.14652 4.70399 7.85478 4.70399 7.63085 4.5547L6.40435 3.73703C6.0095 3.4738 5.54557 3.33333 5.07102 3.33333Z" fill="#331400"/>
</g>
</svg>
