<svg width="20" height="20" viewBox="0 0 20 20" fill="none" xmlns="http://www.w3.org/2000/svg">
<g id="menu-grid-o">
<g id="menu-grid-o_2">
<path d="M6.66732 4.99998C6.66732 5.92045 5.92113 6.66665 5.00065 6.66665C4.08018 6.66665 3.33398 5.92045 3.33398 4.99998C3.33398 4.07951 4.08018 3.33331 5.00065 3.33331C5.92113 3.33331 6.66732 4.07951 6.66732 4.99998Z" fill="white"/>
<path d="M6.66732 9.99998C6.66732 10.9205 5.92113 11.6666 5.00065 11.6666C4.08018 11.6666 3.33398 10.9205 3.33398 9.99998C3.33398 9.0795 4.08018 8.33331 5.00065 8.33331C5.92113 8.33331 6.66732 9.0795 6.66732 9.99998Z" fill="white"/>
<path d="M5.00065 16.6666C5.92113 16.6666 6.66732 15.9205 6.66732 15C6.66732 14.0795 5.92113 13.3333 5.00065 13.3333C4.08018 13.3333 3.33398 14.0795 3.33398 15C3.33398 15.9205 4.08018 16.6666 5.00065 16.6666Z" fill="white"/>
<path d="M11.6673 4.99998C11.6673 5.92045 10.9211 6.66665 10.0007 6.66665C9.08018 6.66665 8.33398 5.92045 8.33398 4.99998C8.33398 4.07951 9.08018 3.33331 10.0007 3.33331C10.9211 3.33331 11.6673 4.07951 11.6673 4.99998Z" fill="white"/>
<path d="M10.0007 11.6666C10.9211 11.6666 11.6673 10.9205 11.6673 9.99998C11.6673 9.0795 10.9211 8.33331 10.0007 8.33331C9.08018 8.33331 8.33398 9.0795 8.33398 9.99998C8.33398 10.9205 9.08018 11.6666 10.0007 11.6666Z" fill="white"/>
<path d="M11.6673 15C11.6673 15.9205 10.9211 16.6666 10.0007 16.6666C9.08018 16.6666 8.33398 15.9205 8.33398 15C8.33398 14.0795 9.08018 13.3333 10.0007 13.3333C10.9211 13.3333 11.6673 14.0795 11.6673 15Z" fill="white"/>
<path d="M15.0007 6.66665C15.9211 6.66665 16.6673 5.92045 16.6673 4.99998C16.6673 4.07951 15.9211 3.33331 15.0007 3.33331C14.0802 3.33331 13.334 4.07951 13.334 4.99998C13.334 5.92045 14.0802 6.66665 15.0007 6.66665Z" fill="white"/>
<path d="M16.6673 9.99998C16.6673 10.9205 15.9211 11.6666 15.0007 11.6666C14.0802 11.6666 13.334 10.9205 13.334 9.99998C13.334 9.0795 14.0802 8.33331 15.0007 8.33331C15.9211 8.33331 16.6673 9.0795 16.6673 9.99998Z" fill="white"/>
<path d="M15.0007 16.6666C15.9211 16.6666 16.6673 15.9205 16.6673 15C16.6673 14.0795 15.9211 13.3333 15.0007 13.3333C14.0802 13.3333 13.334 14.0795 13.334 15C13.334 15.9205 14.0802 16.6666 15.0007 16.6666Z" fill="white"/>
</g>
</g>
</svg>
