<svg width="16" height="17" viewBox="0 0 16 17" fill="none" xmlns="http://www.w3.org/2000/svg">
<g id="search">
<path id="search_2" fill-rule="evenodd" clip-rule="evenodd" d="M11.2452 10.6605C12.8744 8.5682 12.7272 5.54109 10.8038 3.61764C8.72099 1.53484 5.34411 1.53484 3.26132 3.61764C1.17852 5.70044 1.17852 9.07731 3.26132 11.1601C5.18477 13.0836 8.21188 13.2307 10.3042 11.6016C10.3132 11.6118 10.3226 11.6218 10.3324 11.6315L13.1608 14.4599C13.4212 14.7203 13.8433 14.7203 14.1036 14.4599C14.364 14.1996 14.364 13.7775 14.1036 13.5171L11.2752 10.6887C11.2654 10.6789 11.2554 10.6696 11.2452 10.6605ZM9.86098 4.56045C11.4231 6.12255 11.4231 8.65521 9.86098 10.2173C8.29888 11.7794 5.76622 11.7794 4.20412 10.2173C2.64203 8.65521 2.64203 6.12255 4.20412 4.56045C5.76622 2.99835 8.29888 2.99835 9.86098 4.56045Z" fill="#1F1814"/>
</g>
</svg>
