<svg width="16" height="16" viewBox="0 0 16 16" fill="none" xmlns="http://www.w3.org/2000/svg">
<g id=" User, person, profile">
<g id="Shape">
<path fill-rule="evenodd" clip-rule="evenodd" d="M7.99935 1.33331C6.1584 1.33331 4.66602 2.8257 4.66602 4.66665C4.66602 6.5076 6.1584 7.99998 7.99935 7.99998C9.8403 7.99998 11.3327 6.5076 11.3327 4.66665C11.3327 2.8257 9.8403 1.33331 7.99935 1.33331ZM5.99935 4.66665C5.99935 3.56208 6.89478 2.66665 7.99935 2.66665C9.10392 2.66665 9.99935 3.56208 9.99935 4.66665C9.99935 5.77122 9.10392 6.66665 7.99935 6.66665C6.89478 6.66665 5.99935 5.77122 5.99935 4.66665Z" fill="#331400"/>
<path fill-rule="evenodd" clip-rule="evenodd" d="M6.76125 9.33331C4.49952 9.33331 2.66602 11.1668 2.66602 13.4286C2.66602 14.1123 3.22033 14.6666 3.90411 14.6666H12.0946C12.7784 14.6666 13.3327 14.1123 13.3327 13.4286C13.3327 11.1668 11.4992 9.33331 9.23744 9.33331H6.76125ZM9.23744 10.6666C10.7309 10.6666 11.9475 11.8521 11.9977 13.3333H4.00096C4.05115 11.8521 5.26777 10.6666 6.76125 10.6666H9.23744Z" fill="#331400"/>
</g>
</g>
</svg>
